<svg width="20" height="19" viewBox="0 0 20 19" fill="none" xmlns="http://www.w3.org/2000/svg">
<g filter="url(#filter0_d_1716_374)">
<path d="M13.8337 10.6667C13.667 10.5833 12.5837 10.0833 12.417 10C12.2503 9.91668 12.0837 9.91668 11.917 10.0833C11.7503 10.25 11.417 10.75 11.2503 10.9167C11.167 11.0833 11.0003 11.0833 10.8337 11C10.2503 10.75 9.66699 10.4167 9.16699 10C8.75033 9.58334 8.33366 9.08334 8.00033 8.58334C7.91699 8.41668 8.00033 8.25001 8.08366 8.16668C8.16699 8.08334 8.25033 7.91668 8.41699 7.83334C8.50033 7.75001 8.58366 7.58334 8.58366 7.50001C8.66699 7.41668 8.66699 7.25001 8.58366 7.16668C8.50033 7.08334 8.08366 6.08334 7.91699 5.66668C7.83366 5.08334 7.66699 5.08334 7.50033 5.08334C7.41699 5.08334 7.25033 5.08334 7.08366 5.08334C6.91699 5.08334 6.66699 5.25001 6.58366 5.33334C6.08366 5.83334 5.83366 6.41668 5.83366 7.08334C5.91699 7.83334 6.16699 8.58334 6.66699 9.25001C7.58366 10.5833 8.75033 11.6667 10.167 12.3333C10.5837 12.5 10.917 12.6667 11.3337 12.75C11.7503 12.9167 12.167 12.9167 12.667 12.8333C13.2503 12.75 13.7503 12.3333 14.0837 11.8333C14.2503 11.5 14.2503 11.1667 14.167 10.8333C14.167 10.8333 14.0003 10.75 13.8337 10.6667ZM15.917 3.08334C12.667 -0.166656 7.41699 -0.166656 4.16699 3.08334C1.50033 5.75001 1.00033 9.83334 2.83366 13.0833L1.66699 17.3333L6.08366 16.1667C7.33366 16.8333 8.66699 17.1667 10.0003 17.1667C14.5837 17.1667 18.2503 13.5 18.2503 8.91668C18.3337 6.75001 17.417 4.66668 15.917 3.08334ZM13.667 14.75C12.5837 15.4167 11.3337 15.8333 10.0003 15.8333C8.75033 15.8333 7.58366 15.5 6.50033 14.9167L6.25033 14.75L3.66699 15.4167L4.33366 12.9167L4.16699 12.6667C2.16699 9.33334 3.16699 5.16668 6.41699 3.08334C9.66699 1.00001 13.8337 2.08334 15.8337 5.25001C17.8337 8.50001 16.917 12.75 13.667 14.75Z" fill="white"/>
<path d="M8.81344 10.3536L8.82948 10.3696L8.8469 10.3841C9.38789 10.8349 10.0105 11.1901 10.6248 11.4545C10.7563 11.518 10.94 11.5762 11.144 11.5471C11.3583 11.5164 11.5375 11.3971 11.6531 11.2182C11.7535 11.1071 11.8711 10.9502 11.966 10.8236C11.972 10.8156 11.9779 10.8077 11.9837 10.8C12.0971 10.6487 12.1842 10.5341 12.24 10.47C12.3651 10.5304 12.6343 10.656 12.8958 10.778L12.9139 10.7864C13.232 10.9349 13.5347 11.0762 13.6101 11.1139L13.612 11.1149L13.613 11.1154L13.614 11.1158L13.6179 11.1178L13.6257 11.1217L13.6413 11.1295L13.6422 11.13L13.6432 11.1305L13.6442 11.131L13.6452 11.1314L13.649 11.1334L13.6568 11.1373L13.6587 11.1382L13.6607 11.1392L13.6645 11.1411L13.6665 11.1421L13.6674 11.1426L13.6684 11.1431L13.6703 11.144L13.6722 11.145L13.6799 11.1488L13.6837 11.1507L13.6875 11.1526L13.7027 11.1602L13.7065 11.1621L13.7102 11.164L13.7177 11.1677L13.7185 11.1681C13.7307 11.3178 13.7092 11.4523 13.649 11.5835C13.3639 11.999 12.9812 12.2834 12.5963 12.3384L12.5963 12.3382L12.5848 12.3401C12.1296 12.416 11.8166 12.4047 11.5194 12.2858L11.4767 12.2687L11.4317 12.2597C11.1631 12.206 10.9494 12.1166 10.6632 11.9969C10.573 11.9592 10.4755 11.9184 10.3668 11.8748C9.05086 11.2522 7.95267 10.2375 7.07901 8.96675L7.07318 8.95825L7.06699 8.95001C6.63523 8.37433 6.41203 7.72305 6.33383 7.05638C6.34027 6.54225 6.53174 6.09237 6.93721 5.6869C6.93656 5.68755 6.93623 5.68788 6.93624 5.68789C6.9363 5.68795 6.94581 5.67926 6.96676 5.6641C6.98932 5.64776 7.0168 5.62997 7.04523 5.61417C7.07279 5.59886 7.09511 5.58884 7.1101 5.58334H7.11099H7.11196H7.11294H7.11391H7.11489H7.11586H7.11684H7.11781H7.11879H7.11976H7.12073H7.12171H7.12268H7.12366H7.12463H7.1256H7.12658H7.12755H7.12852H7.12949H7.13047H7.13144H7.13241H7.13338H7.13435H7.13532H7.1363H7.13727H7.13824H7.13921H7.14018H7.14115H7.14212H7.14309H7.14406H7.14503H7.146H7.14697H7.14793H7.1489H7.14987H7.15084H7.15181H7.15277H7.15374H7.15471H7.15567H7.15664H7.15761H7.15857H7.15954H7.1605H7.16147H7.16243H7.1634H7.16436H7.16532H7.16629H7.16725H7.16821H7.16917H7.17014H7.1711H7.17206H7.17302H7.17398H7.17494H7.1759H7.17686H7.17782H7.17878H7.17974H7.1807H7.18165H7.18261H7.18357H7.18452H7.18548H7.18644H7.18739H7.18835H7.1893H7.19026H7.19121H7.19216H7.19312H7.19407H7.19502H7.19597H7.19692H7.19787H7.19882H7.19977H7.20072H7.20167H7.20262H7.20357H7.20452H7.20546H7.20641H7.20736H7.2083H7.20925H7.21019H7.21114H7.21208H7.21303H7.21397H7.21491H7.21585H7.21679H7.21773H7.21867H7.21961H7.22055H7.22149H7.22243H7.22337H7.22431H7.22524H7.22618H7.22711H7.22805H7.22898H7.22992H7.23085H7.23178H7.23271H7.23365H7.23458H7.23551H7.23644H7.23737H7.2383H7.23922H7.24015H7.24108H7.242H7.24293H7.24385H7.24478H7.2457H7.24662H7.24755H7.24847H7.24939H7.25031H7.25123H7.25215H7.25307H7.25399H7.2549H7.25582H7.25674H7.25765H7.25857H7.25948H7.26039H7.2613H7.26222H7.26313H7.26404H7.26495H7.26586H7.26677H7.26767H7.26858H7.26949H7.27039H7.2713H7.2722H7.2731H7.274H7.27491H7.27581H7.27671H7.27761H7.27851H7.2794H7.2803H7.2812H7.28209H7.28299H7.28388H7.28477H7.28567H7.28656H7.28745H7.28834H7.28923H7.29012H7.29101H7.29189H7.29278H7.29366H7.29455H7.29543H7.29631H7.2972H7.29808H7.29896H7.29984H7.30071H7.30159H7.30247H7.30334H7.30422H7.30509H7.30597H7.30684H7.30771H7.30858H7.30945H7.31032H7.31119H7.31206H7.31292H7.31379H7.31465H7.31551H7.31638H7.31724H7.3181H7.31896H7.31982H7.32067H7.32153H7.32239H7.32324H7.3241H7.32495H7.3258H7.32665H7.3275H7.32835H7.3292H7.33005H7.33089H7.33174H7.33258H7.33343H7.33427H7.33511H7.33595H7.33679H7.33763H7.33847H7.3393H7.34014H7.34097H7.3418H7.34264H7.34347H7.3443H7.34513H7.34595H7.34678H7.34761H7.34843H7.34926H7.35008H7.3509H7.35172H7.35254H7.35336H7.35417H7.35499H7.35581H7.35662H7.35743H7.35824H7.35906H7.35986H7.36067H7.36148H7.36229H7.36309H7.36389H7.3647H7.3655H7.3663H7.3671H7.3679H7.36869H7.36949H7.37028H7.37108H7.37187H7.37266H7.37345H7.37424H7.37503H7.37581H7.3766H7.37738H7.37817H7.37895H7.37973H7.38051H7.38129H7.38206H7.38284H7.38361H7.38439H7.38516H7.38593H7.3867H7.38747H7.38823H7.389H7.38976H7.39053H7.39129H7.39205H7.39281H7.39357H7.39406C7.40316 5.6224 7.41281 5.6729 7.42202 5.73739L7.43049 5.79672L7.45275 5.85237C7.53756 6.06438 7.68521 6.42298 7.8228 6.74048C7.89138 6.89874 7.95924 7.05093 8.01644 7.17091C8.03932 7.21889 8.06209 7.26511 8.08366 7.30617V7.44447C8.08212 7.44751 8.08052 7.45053 8.0789 7.45349C7.96813 7.52905 7.88883 7.61528 7.83497 7.67992C7.80717 7.71327 7.7801 7.74858 7.76215 7.77199C7.75825 7.77708 7.75477 7.78161 7.75182 7.78543C7.73588 7.80606 7.72949 7.81349 7.72865 7.81455C7.72831 7.81498 7.72888 7.81435 7.73011 7.81312C7.56822 7.97501 7.33399 8.3687 7.55311 8.80695L7.56703 8.83479L7.5843 8.86069C7.93726 9.39014 8.3753 9.91542 8.81344 10.3536ZM13.9433 11.2805C13.9433 11.2805 13.9432 11.2805 13.9433 11.2805L13.9433 11.2805L13.9433 11.2805ZM3.31582 13.2157L3.37035 13.0171L3.26915 12.8377C1.54343 9.77845 2.01639 5.94106 4.52055 3.4369C7.57369 0.38375 12.5036 0.38216 15.5587 3.43213C16.9785 4.93319 17.828 6.8881 17.7507 8.89746L17.7503 8.90706V8.91668C17.7503 13.2239 14.3075 16.6667 10.0003 16.6667C8.75161 16.6667 7.49882 16.3548 6.31895 15.7255L6.14575 15.6331L5.95596 15.6833L2.37909 16.6281L3.31582 13.2157ZM6.22298 15.3327L6.24256 15.3458L6.26328 15.3569C7.41028 15.9745 8.65774 16.3333 10.0003 16.3333C11.4397 16.3333 12.7793 15.8834 13.929 15.1758C17.4247 13.0247 18.3977 8.46251 16.2595 4.98796L16.2595 4.98794L16.2564 4.98301C14.1165 1.59476 9.64349 0.421169 6.14716 2.6624C2.67105 4.89068 1.59821 9.3572 3.73825 12.9239L3.74437 12.9341L3.75097 12.944L3.79234 13.0061L3.18388 15.2878L2.9634 16.1146L3.79193 15.9008L6.1589 15.29L6.22298 15.3327Z" stroke="black"/>
</g>
<defs>
<filter id="filter0_d_1716_374" x="-2.33301" y="0.645844" width="24.5884" height="24.6875" filterUnits="userSpaceOnUse" color-interpolation-filters="sRGB">
<feFlood flood-opacity="0" result="BackgroundImageFix"/>
<feColorMatrix in="SourceAlpha" type="matrix" values="0 0 0 0 0 0 0 0 0 0 0 0 0 0 0 0 0 0 127 0" result="hardAlpha"/>
<feOffset dy="4"/>
<feGaussianBlur stdDeviation="2"/>
<feComposite in2="hardAlpha" operator="out"/>
<feColorMatrix type="matrix" values="0 0 0 0 0 0 0 0 0 0 0 0 0 0 0 0 0 0 0.25 0"/>
<feBlend mode="normal" in2="BackgroundImageFix" result="effect1_dropShadow_1716_374"/>
<feBlend mode="normal" in="SourceGraphic" in2="effect1_dropShadow_1716_374" result="shape"/>
</filter>
</defs>
</svg>
